<svg width="1000" height="1000" viewBox="0 0 1000 1000" fill="none" xmlns="http://www.w3.org/2000/svg">
<g clip-path="url(#clip0_367_16)">
<path d="M1043.88 114.418H857.535C846.606 114.418 836.124 110.076 828.396 102.348C820.668 94.62 816.326 84.1383 816.326 73.209C816.326 62.2797 820.668 51.798 828.396 44.0698C836.124 36.3417 846.606 32 857.535 32H1043.88C1054.81 32 1065.29 36.3417 1073.02 44.0698C1080.75 51.798 1085.09 62.2797 1085.09 73.209C1085.09 84.1383 1080.75 94.62 1073.02 102.348C1065.29 110.076 1054.81 114.418 1043.88 114.418V114.418Z" fill="#03FF89"/>
<path d="M1002.67 324.328H495.225C473.366 324.328 452.403 315.645 436.946 300.189C421.49 284.732 412.807 263.769 412.807 241.91C412.807 220.052 421.49 199.088 436.946 183.632C452.403 168.176 473.366 159.492 495.225 159.492H1002.67C1024.53 159.492 1045.5 168.176 1060.95 183.632C1076.41 199.088 1085.09 220.052 1085.09 241.91C1085.09 263.769 1076.41 284.732 1060.95 300.189C1045.5 315.645 1024.53 324.328 1002.67 324.328Z" fill="#03FF89"/>
<path d="M1118.39 623.328H376.625C343.837 623.328 312.393 610.303 289.209 587.119C266.025 563.935 253 532.491 253 499.703C253 466.916 266.025 435.472 289.209 412.287C312.393 389.103 343.837 376.079 376.625 376.079H1118.39C1151.18 376.079 1182.62 389.103 1205.81 412.287C1228.99 435.472 1242.02 466.916 1242.02 499.703C1242.02 532.491 1228.99 563.935 1205.81 587.119C1182.62 610.303 1151.18 623.328 1118.39 623.328Z" fill="#03FF89"/>
<path d="M1002.67 839.924H495.225C473.366 839.924 452.403 831.241 436.946 815.785C421.49 800.328 412.807 779.365 412.807 757.506C412.807 735.648 421.49 714.684 436.946 699.228C452.403 683.772 473.366 675.088 495.225 675.088H1002.67C1024.53 675.088 1045.5 683.772 1060.95 699.228C1076.41 714.684 1085.09 735.648 1085.09 757.506C1085.09 779.365 1076.41 800.328 1060.95 815.785C1045.5 831.241 1024.53 839.924 1002.67 839.924Z" fill="#03FF89"/>
<path d="M640.362 967.409H454.015C443.085 967.409 432.604 963.068 424.876 955.339C417.147 947.611 412.806 937.13 412.806 926.2C412.806 915.271 417.147 904.789 424.876 897.061C432.604 889.333 443.085 884.991 454.015 884.991H640.362C651.292 884.991 661.773 889.333 669.502 897.061C677.23 904.789 681.571 915.271 681.571 926.2C681.571 937.13 677.23 947.611 669.502 955.339C661.773 963.068 651.292 967.409 640.362 967.409V967.409Z" fill="#03FF89"/>
</g>
<defs>
<clipPath id="clip0_367_16">
<rect width="1000" height="1000" fill="white"/>
</clipPath>
</defs>
</svg>
