<svg xmlns="http://www.w3.org/2000/svg" xmlns:xlink="http://www.w3.org/1999/xlink" width="1000" height="1000" viewBox="0 0 1000 1000"><defs><style>.a{clip-path:url(#b);}.b{fill:#03ff89;}</style><clipPath id="b"><rect width="1000" height="1000"/></clipPath></defs><g id="a" class="a"><g transform="translate(376.991 76.275)"><path class="b" d="M205.659,74.168H36.834a37.334,37.334,0,1,1,0-74.668H205.659a37.334,37.334,0,0,1,0,74.668Z" transform="translate(510.855 0.5)"/><path class="b" d="M533.4,148.336H73.668A74.668,74.668,0,1,1,73.668-1H533.4a74.668,74.668,0,1,1,0,149.336Z" transform="translate(145.78 116.504)"/><path class="b" d="M782.516,222.5H110.5a112,112,0,1,1,0-224H782.516a112,112,0,1,1,0,224Z" transform="translate(1.5 313.224)"/><path class="b" d="M533.4,148.336H73.668A74.668,74.668,0,1,1,73.668-1H533.4a74.668,74.668,0,1,1,0,149.336Z" transform="translate(145.78 583.617)"/><path class="b" d="M205.659,74.168H36.834a37.334,37.334,0,1,1,0-74.668H205.659a37.334,37.334,0,0,1,0,74.668Z" transform="translate(145.279 773.282)"/></g></g></svg>