<svg width="30" height="30" viewBox="0 0 30 30" fill="none" xmlns="http://www.w3.org/2000/svg">
<path d="M22.9551 22.9551L7.04507 7.04507M22.9551 22.9551C25.0649 20.8453 26.2501 17.9838 26.2501 15.0001C26.2501 12.0164 25.0649 9.15487 22.9551 7.04507C20.8453 4.93527 17.9838 3.75 15.0001 3.75C12.0164 3.75 9.15487 4.93527 7.04507 7.04507L22.9551 22.9551ZM22.9551 22.9551C20.8453 25.0649 17.9838 26.2501 15.0001 26.2501C12.0164 26.2501 9.15487 25.0649 7.04507 22.9551C4.93527 20.8453 3.75 17.9838 3.75 15.0001C3.75 12.0164 4.93527 9.15487 7.04507 7.04507L22.9551 22.9551Z" stroke="white" stroke-width="3.4375" stroke-linecap="round" stroke-linejoin="round"/>
</svg>
