<svg width="32" height="32" viewBox="0 0 32 32" fill="none" xmlns="http://www.w3.org/2000/svg">
<path d="M18.1212 16L24.0587 10.0625C24.3405 9.7812 24.499 9.39948 24.4994 9.00132C24.4997 8.60316 24.3419 8.22116 24.0606 7.93937C23.7793 7.65758 23.3976 7.49907 22.9994 7.49872C22.6013 7.49837 22.2193 7.6562 21.9375 7.93749L16 13.875L10.0625 7.93749C9.78069 7.6557 9.39849 7.49739 8.99998 7.49739C8.60146 7.49739 8.21927 7.6557 7.93748 7.93749C7.65569 8.21929 7.49738 8.60148 7.49738 8.99999C7.49738 9.39851 7.65569 9.7807 7.93748 10.0625L13.875 16L7.93748 21.9375C7.65569 22.2193 7.49738 22.6015 7.49738 23C7.49738 23.3985 7.65569 23.7807 7.93748 24.0625C8.21927 24.3443 8.60146 24.5026 8.99998 24.5026C9.39849 24.5026 9.78069 24.3443 10.0625 24.0625L16 18.125L21.9375 24.0625C22.2193 24.3443 22.6015 24.5026 23 24.5026C23.3985 24.5026 23.7807 24.3443 24.0625 24.0625C24.3443 23.7807 24.5026 23.3985 24.5026 23C24.5026 22.6015 24.3443 22.2193 24.0625 21.9375L18.1212 16Z" fill="white"/>
</svg>
