<svg width="24" height="24" viewBox="0 0 24 24" fill="none" xmlns="http://www.w3.org/2000/svg">
<path d="M5.57066 11.4699C5.57064 11.347 5.59489 11.2254 5.64201 11.112C5.68913 10.9986 5.7582 10.8956 5.84524 10.8089C5.93229 10.7222 6.0356 10.6536 6.14924 10.607C6.26288 10.5604 6.3846 10.5367 6.50743 10.5373L8.0605 10.5424C8.30813 10.5424 8.54562 10.6408 8.72072 10.8159C8.89583 10.991 8.9942 11.2284 8.9942 11.4761V17.3488C9.16915 17.297 9.39353 17.2417 9.63933 17.184C9.81 17.1439 9.9621 17.0472 10.071 16.9098C10.1799 16.7724 10.2391 16.6022 10.2392 16.4268V9.14223C10.2392 8.89457 10.3375 8.65705 10.5126 8.48191C10.6877 8.30676 10.9252 8.20835 11.1729 8.20831H12.7291C12.9767 8.20837 13.2142 8.30679 13.3893 8.48193C13.5644 8.65707 13.6628 8.89458 13.6628 9.14223V15.9033C13.6628 15.9033 14.0522 15.7456 14.4319 15.5854C14.5728 15.5258 14.6931 15.426 14.7777 15.2984C14.8624 15.1709 14.9075 15.0212 14.9077 14.8682V6.80757C14.9077 6.68497 14.9318 6.56356 14.9787 6.45029C15.0256 6.33701 15.0944 6.23408 15.1811 6.14738C15.2678 6.06068 15.3707 5.9919 15.4839 5.94497C15.5972 5.89804 15.7186 5.87388 15.8412 5.87387H17.3974C17.6451 5.87387 17.8826 5.97224 18.0577 6.14734C18.2328 6.32244 18.3312 6.55993 18.3312 6.80757V13.445C19.6803 12.4673 21.0477 11.2912 22.1327 9.87716C22.2902 9.6719 22.3943 9.43086 22.436 9.17555C22.4776 8.92024 22.4554 8.6586 22.3713 8.41397C21.6371 6.27435 20.26 4.41372 18.4282 3.08649C16.5964 1.75926 14.3994 1.03021 12.1375 0.999044C6.03822 0.91711 0.997501 5.89597 0.9981 11.996C0.992111 13.9262 1.4959 15.8238 2.45853 17.4969C2.59128 17.7258 2.78658 17.912 3.02149 18.0337C3.2564 18.1554 3.52116 18.2075 3.78467 18.1839C4.07908 18.158 4.44561 18.1214 4.88134 18.0702C5.07099 18.0487 5.24609 17.9581 5.37327 17.8157C5.50045 17.6734 5.57084 17.4893 5.57103 17.2984V11.4699" fill="white"/>
<path d="M5.53719 20.8877C7.1775 22.081 9.11595 22.7973 11.1381 22.9573C13.1602 23.1173 15.1872 22.7147 16.9947 21.7943C18.8023 20.8738 20.32 19.4712 21.3799 17.7417C22.4398 16.0122 23.0006 14.0232 23.0003 11.9948C23.0003 11.7416 22.9886 11.4912 22.9716 11.2422C18.9542 17.2337 11.5364 20.0351 5.53711 20.8879" fill="white"/>
</svg>
