<svg width="30" height="30" viewBox="0 0 30 30" fill="none" xmlns="http://www.w3.org/2000/svg">
<path d="M4.49707 2.8125H11.6982C11.9221 2.81234 12.137 2.90081 12.2959 3.0586L26.6924 17.4551C27.0076 17.7719 27.1846 18.2006 27.1846 18.6475C27.1846 19.0944 27.0076 19.5231 26.6924 19.8398L19.8369 26.6953C19.5201 27.0105 19.0914 27.1875 18.6445 27.1875C18.1976 27.1875 17.7689 27.0105 17.4521 26.6953L3.06152 12.3047C2.90374 12.1458 2.81526 11.9309 2.81542 11.707V4.5C2.81434 4.27859 2.85706 4.05914 2.94111 3.8543C3.02517 3.64946 3.1489 3.46326 3.3052 3.30642C3.46149 3.14958 3.64726 3.0252 3.85181 2.94044C4.05635 2.85567 4.27565 2.81219 4.49707 2.8125V2.8125Z" stroke="white" stroke-width="1.875" stroke-linecap="round" stroke-linejoin="round"/>
<path d="M7.5 9.375C7.87084 9.375 8.23335 9.26503 8.54169 9.05901C8.85004 8.85298 9.09036 8.56014 9.23227 8.21753C9.37419 7.87492 9.41132 7.49792 9.33897 7.13421C9.26662 6.77049 9.08805 6.4364 8.82582 6.17418C8.5636 5.91195 8.22951 5.73338 7.86579 5.66103C7.50208 5.58868 7.12508 5.62581 6.78247 5.76773C6.43986 5.90964 6.14702 6.14996 5.94099 6.45831C5.73497 6.76665 5.625 7.12916 5.625 7.5C5.625 7.99728 5.82254 8.4742 6.17417 8.82583C6.5258 9.17746 7.00272 9.375 7.5 9.375Z" fill="white"/>
</svg>
