<svg width="32" height="32" viewBox="0 0 32 32" fill="none" xmlns="http://www.w3.org/2000/svg">
<path d="M19 15V3C19 2.46957 18.7893 1.96086 18.4142 1.58579C18.0391 1.21071 17.5304 1 17 1C16.4696 1 15.9609 1.21071 15.5858 1.58579C15.2107 1.96086 15 2.46957 15 3V15M27 20V9C27 8.46957 26.7893 7.96086 26.4142 7.58579C26.0391 7.21071 25.5304 7 25 7V7C24.4696 7 23.9609 7.21071 23.5858 7.58579C23.2107 7.96086 23 8.46957 23 9V16L27 20ZM23 16V5C23 4.46957 22.7893 3.96086 22.4142 3.58579C22.0391 3.21071 21.5304 3 21 3C20.4696 3 19.9609 3.21071 19.5858 3.58579C19.2107 3.96086 19 4.46957 19 5V15L23 16ZM15 15.0625V6C15 5.46957 14.7893 4.96086 14.4142 4.58579C14.0391 4.21071 13.5304 4 13 4V4C12.4696 4 11.9609 4.21071 11.5858 4.58579C11.2107 4.96086 11 5.46957 11 6V20L15 15.0625Z" stroke="white" stroke-width="2" stroke-linecap="round" stroke-linejoin="round"/>
<path d="M27 20C27 27.3375 23 31 17.5 31C12 31 9.76813 28.525 8.5 25.5L5.20813 16.5C4.79188 15.3719 4.98063 14.3257 5.95 13.775C6.92 13.2238 8.19438 13.5075 8.71938 14.505L11 20" stroke="white" stroke-width="2" stroke-linecap="round" stroke-linejoin="round"/>
</svg>
