<svg width="24" height="24" viewBox="0 0 24 24" fill="none" xmlns="http://www.w3.org/2000/svg">
<path d="M11.5 3C6.2541 3 2 7.2541 2 12.5C2 17.7459 6.2541 22 11.5 22C16.7459 22 21 17.7459 21 12.5C21 7.2541 16.7478 3 11.5 3ZM6.6873 12.8192L6.7272 12.7546L9.1991 8.8881C9.2352 8.833 9.3207 8.8387 9.3473 8.8995C9.7596 9.8248 10.1168 10.9762 9.9496 11.6925C9.8793 11.987 9.6836 12.386 9.4632 12.7546C9.4347 12.8078 9.4043 12.861 9.3701 12.9123C9.3549 12.9351 9.3283 12.9484 9.2998 12.9484H6.7595C6.6911 12.9484 6.6512 12.8743 6.6873 12.8192ZM17.7016 14.1492C17.7016 14.1853 17.6807 14.2157 17.6503 14.229C17.4584 14.3107 16.8029 14.6128 16.5312 14.9909C15.8358 15.958 15.3057 17.3412 14.1182 17.3412H9.1668C7.4112 17.3412 5.99 15.9143 5.99 14.153V14.096C5.99 14.0504 6.028 14.0124 6.0755 14.0124H8.8343C8.8894 14.0124 8.9293 14.0618 8.9255 14.1169C8.9046 14.2955 8.9388 14.4798 9.0243 14.647C9.1877 14.9795 9.5278 15.1866 9.8945 15.1866H11.2606V14.1207H9.9097C9.8413 14.1207 9.7995 14.0409 9.8394 13.9839C9.8546 13.9611 9.8698 13.9383 9.8888 13.9117C10.0161 13.7293 10.1985 13.4481 10.3809 13.127C10.5044 12.9104 10.6241 12.6786 10.721 12.4468C10.74 12.405 10.7552 12.3613 10.7723 12.3195C10.7989 12.2454 10.8255 12.1751 10.8445 12.1067C10.8635 12.0478 10.8806 11.987 10.8958 11.93C10.9414 11.7324 10.9604 11.5234 10.9604 11.3068C10.9604 11.2213 10.9566 11.132 10.949 11.0484C10.9452 10.9553 10.9338 10.8622 10.9224 10.7691C10.9148 10.6874 10.8996 10.6057 10.8844 10.5221C10.8635 10.3986 10.8369 10.2751 10.8065 10.1516L10.7951 10.1041C10.7723 10.0186 10.7514 9.9388 10.7248 9.8533C10.6469 9.5873 10.5595 9.327 10.4645 9.0838C10.4303 8.9869 10.3923 8.8938 10.3524 8.8026C10.2954 8.662 10.2365 8.5347 10.1833 8.415C10.1548 8.3599 10.132 8.3105 10.1092 8.2592C10.0826 8.2022 10.056 8.1452 10.0275 8.0901C10.0085 8.0483 9.9857 8.0084 9.9705 7.9704L9.8033 7.6626C9.7805 7.6208 9.8185 7.5695 9.8641 7.5828L10.9091 7.8659H10.9129C10.9148 7.8659 10.9148 7.8659 10.9167 7.8659L11.0535 7.9058L11.2055 7.9476L11.2606 7.9628V7.3434C11.2606 7.0432 11.5 6.8 11.7983 6.8C11.9465 6.8 12.0814 6.8608 12.1764 6.9596C12.2733 7.0584 12.3341 7.1933 12.3341 7.3434V8.2649L12.4462 8.2953C12.4538 8.2991 12.4633 8.3029 12.4709 8.3086C12.4975 8.3276 12.5374 8.358 12.5868 8.396C12.6267 8.4264 12.6685 8.4644 12.7179 8.5043C12.8186 8.586 12.9402 8.6905 13.0713 8.8102C13.1055 8.8406 13.1397 8.871 13.172 8.9033C13.3411 9.061 13.5311 9.2453 13.7135 9.4505C13.7648 9.5094 13.8142 9.5664 13.8655 9.6291C13.9149 9.6918 13.97 9.7526 14.0156 9.8134C14.0783 9.8951 14.1429 9.9806 14.2018 10.0699C14.2284 10.1117 14.2607 10.1554 14.2854 10.1972C14.3614 10.3093 14.426 10.4252 14.4887 10.5411C14.5153 10.5943 14.5419 10.6532 14.5647 10.7102C14.635 10.866 14.6901 11.0237 14.7243 11.1833C14.7357 11.2175 14.7433 11.2536 14.7471 11.2878V11.2954C14.7585 11.341 14.7623 11.3904 14.7661 11.4417C14.7813 11.6032 14.7737 11.7666 14.7395 11.93C14.7243 11.9984 14.7053 12.063 14.6825 12.1333C14.6578 12.1998 14.635 12.2682 14.6046 12.3347C14.5457 12.4696 14.4773 12.6064 14.3956 12.7318C14.369 12.7793 14.3367 12.8287 14.3063 12.8762C14.2721 12.9256 14.236 12.9731 14.2056 13.0187C14.1619 13.0776 14.1163 13.1384 14.0688 13.1935C14.027 13.2505 13.9852 13.3075 13.9377 13.3588C13.8731 13.4367 13.8104 13.5089 13.7439 13.5792C13.7059 13.6248 13.6641 13.6723 13.6204 13.7141C13.5786 13.7616 13.5349 13.8034 13.4969 13.8414C13.4304 13.9079 13.3772 13.9573 13.3316 14.001L13.2233 14.0979C13.2081 14.1131 13.1872 14.1207 13.1663 14.1207H12.3341V15.1866H13.381C13.6147 15.1866 13.837 15.1049 14.0175 14.951C14.0783 14.8978 14.3462 14.666 14.6635 14.3164C14.6749 14.3031 14.6882 14.2955 14.7034 14.2917L17.5933 13.4557C17.6484 13.4405 17.7016 13.4804 17.7016 13.5374V14.1492Z" fill="white"/>
</svg>
