<svg xmlns="http://www.w3.org/2000/svg" xmlns:xlink="http://www.w3.org/1999/xlink" width="1920" height="1920" viewBox="0 0 1920 1920"><defs><style>.a{clip-path:url(#b);}.b,.c,.g{fill:#03ff89;}.c,.g{font-size:73px;font-family:Futura-Bold, Futura;font-weight:700;}.c{letter-spacing:0.01em;}.d{letter-spacing:-0.03em;}.e{letter-spacing:0.03em;}.f{letter-spacing:-0.02em;}.g{letter-spacing:0.039em;}.h{letter-spacing:-0.01em;}</style><clipPath id="b"><rect width="1920" height="1920"/></clipPath></defs><g id="a" class="a"><path class="b" d="M-11760.711,8828.511h-1204.534a202.172,202.172,0,0,1-40.459-4.079,199.676,199.676,0,0,1-37.683-11.7,200.758,200.758,0,0,1-34.1-18.51,202.23,202.23,0,0,1-29.711-24.514,202.292,202.292,0,0,1-24.514-29.711,200.783,200.783,0,0,1-18.51-34.1,199.663,199.663,0,0,1-11.7-37.684,202.158,202.158,0,0,1-4.079-40.459,202.158,202.158,0,0,1,4.079-40.459,199.676,199.676,0,0,1,11.7-37.683,200.758,200.758,0,0,1,18.51-34.1,202.292,202.292,0,0,1,24.514-29.711,202.292,202.292,0,0,1,29.711-24.514,200.758,200.758,0,0,1,34.1-18.51,199.676,199.676,0,0,1,37.683-11.7,202.158,202.158,0,0,1,40.459-4.079h1204.534a202.158,202.158,0,0,1,40.459,4.079,199.676,199.676,0,0,1,37.683,11.7,200.758,200.758,0,0,1,34.1,18.51,202.292,202.292,0,0,1,29.711,24.514,202.23,202.23,0,0,1,24.514,29.711,200.758,200.758,0,0,1,18.51,34.1,199.676,199.676,0,0,1,11.7,37.683,202.172,202.172,0,0,1,4.079,40.459,202.172,202.172,0,0,1-4.079,40.459,199.663,199.663,0,0,1-11.7,37.684,200.783,200.783,0,0,1-18.51,34.1,202.23,202.23,0,0,1-24.514,29.711,202.23,202.23,0,0,1-29.711,24.514,200.758,200.758,0,0,1-34.1,18.51,199.676,199.676,0,0,1-37.683,11.7A202.172,202.172,0,0,1-11760.711,8828.511Zm-1125.846-113.97,16.352,16.825,42.66-6.635-30.336-31.757a86.732,86.732,0,0,0,10.042-13.215,88.41,88.41,0,0,0,7.378-14.99,90.855,90.855,0,0,0,4.532-16.53,103.177,103.177,0,0,0,1.512-17.834,99.194,99.194,0,0,0-1.837-19.227,89.914,89.914,0,0,0-5.512-17.863,94.11,94.11,0,0,0-8.8-16.086,91.517,91.517,0,0,0-11.7-13.9,90.39,90.39,0,0,0-14.429-11.4,100.331,100.331,0,0,0-16.975-8.62,100.672,100.672,0,0,0-19.077-5.422,116.466,116.466,0,0,0-20.738-1.808,117.65,117.65,0,0,0-20.885,1.808,99.146,99.146,0,0,0-19.046,5.422,99.052,99.052,0,0,0-16.86,8.62,89.454,89.454,0,0,0-14.31,11.4,92.166,92.166,0,0,0-11.611,13.9,95.134,95.134,0,0,0-8.77,16.086,90.075,90.075,0,0,0-5.509,17.863,99.316,99.316,0,0,0-1.836,19.227,99.316,99.316,0,0,0,1.836,19.227,90.075,90.075,0,0,0,5.509,17.863,95.147,95.147,0,0,0,8.77,16.086,92.162,92.162,0,0,0,11.611,13.894,89.471,89.471,0,0,0,14.31,11.407,99.147,99.147,0,0,0,16.86,8.62,99.226,99.226,0,0,0,19.046,5.422,117.65,117.65,0,0,0,20.885,1.808,109.625,109.625,0,0,0,24.769-2.727,118.475,118.475,0,0,0,22.158-7.464h0Zm796.318-173.485v103.567a148.32,148.32,0,0,0,1.2,19.449,99.012,99.012,0,0,0,3.6,16.636,68.875,68.875,0,0,0,6,13.819,53.487,53.487,0,0,0,8.4,11.006,55.089,55.089,0,0,0,10.873,8.4,67.374,67.374,0,0,0,13.42,6,92.881,92.881,0,0,0,15.968,3.6,134.987,134.987,0,0,0,18.515,1.2,134.841,134.841,0,0,0,18.51-1.2,92.464,92.464,0,0,0,15.945-3.6,66.853,66.853,0,0,0,13.382-6,54.554,54.554,0,0,0,10.82-8.4,53.431,53.431,0,0,0,8.348-11,69.129,69.129,0,0,0,5.962-13.82,99.6,99.6,0,0,0,3.576-16.636,149.506,149.506,0,0,0,1.192-19.449V8541.056h-46.213v97.171c0,5.167-.2,10.549-.591,16a42.3,42.3,0,0,1-3.675,14.812,25.817,25.817,0,0,1-9.36,10.786,23.372,23.372,0,0,1-7.615,3.109,45.985,45.985,0,0,1-10.281,1.037,46.364,46.364,0,0,1-10.309-1.037,24.075,24.075,0,0,1-7.7-3.109,24.781,24.781,0,0,1-9.361-10.786,44.079,44.079,0,0,1-3.556-14.812c-.392-5.393-.591-10.774-.591-16v-97.171Zm-721.9,0v103.567a148.619,148.619,0,0,0,1.2,19.449,99.012,99.012,0,0,0,3.6,16.636,68.81,68.81,0,0,0,6,13.819,53.459,53.459,0,0,0,8.4,11.006,55.089,55.089,0,0,0,10.873,8.4,67.315,67.315,0,0,0,13.419,6,92.956,92.956,0,0,0,15.969,3.6,134.987,134.987,0,0,0,18.515,1.2,134.816,134.816,0,0,0,18.509-1.2,92.384,92.384,0,0,0,15.946-3.6,66.953,66.953,0,0,0,13.382-6,54.526,54.526,0,0,0,10.82-8.4,53.431,53.431,0,0,0,8.348-11,69.129,69.129,0,0,0,5.962-13.82,99.617,99.617,0,0,0,3.576-16.636,149.506,149.506,0,0,0,1.192-19.449V8541.056h-46.213v97.171c0,5.19-.2,10.572-.595,16a42.3,42.3,0,0,1-3.671,14.812,25.816,25.816,0,0,1-9.364,10.786,23.379,23.379,0,0,1-7.613,3.109,45.954,45.954,0,0,1-10.279,1.037,46.364,46.364,0,0,1-10.309-1.037,24.1,24.1,0,0,1-7.7-3.109,24.743,24.743,0,0,1-9.36-10.786,44,44,0,0,1-3.556-14.812c-.392-5.4-.591-10.777-.591-16v-97.171Zm421.386,69.441,85.794,109.258h46.217v-178.7h-46.217v109.258l-85.794-109.258h-46.451v178.7h46.451V8610.5h0v0Zm-190.311-69.441-68.018,178.7h49.534l10.662-31.046h66.362l10.663,31.047h49.533l-68.018-178.7Zm694.41,0-30.336,178.7h46.217l15.4-102.86,40.054,102.86h18.483l42.188-102.856v0l15.4,102.856h46.217l-30.337-178.7h-45.978l-35.551,95.274-35.788-95.274Zm-349.1,0V8580.4h38.157v139.355h46.454V8580.4h38.157v-39.344Zm-697.728,138.646a51.46,51.46,0,0,1-19.313-3.675,49.522,49.522,0,0,1-16-10.309,49.958,49.958,0,0,1-10.9-15.643,45.509,45.509,0,0,1-3.023-9.42,51.158,51.158,0,0,1-1.008-10.25,51.151,51.151,0,0,1,1.008-10.25,45.537,45.537,0,0,1,3.023-9.421,49.879,49.879,0,0,1,10.9-15.642,49.522,49.522,0,0,1,16-10.309,51.4,51.4,0,0,1,19.313-3.675,51.408,51.408,0,0,1,19.316,3.675,50.916,50.916,0,0,1,16.118,10.309,49.022,49.022,0,0,1,11.02,15.642,45.382,45.382,0,0,1,3.021,9.421,51.317,51.317,0,0,1,1.006,10.25,49.56,49.56,0,0,1-2.133,14.693,44.454,44.454,0,0,1-6.4,12.8l-12.325-13.035-43.844,5.452,26.543,27.967A55.019,55.019,0,0,1-12933.484,8679.7Zm398.636-26.308h-41.713l20.856-59.485,20.855,59.485Z" transform="translate(13322.978 -7667.753)"/><g transform="translate(156.977 200.505)"><path class="b" d="M369.024,133.337H66.419A66.919,66.919,0,1,1,66.419-.5H369.024a66.919,66.919,0,1,1,0,133.837Z" transform="translate(915.272 0.5)"/><path class="b" d="M956.872,266.674H132.837A133.837,133.837,0,1,1,132.837-1H956.872a133.837,133.837,0,1,1,0,267.674Z" transform="translate(260.506 208.032)"/><path class="b" d="M956.872,266.674H132.837A133.837,133.837,0,1,1,132.837-1H956.872a133.837,133.837,0,1,1,0,267.674Z" transform="translate(260.506 1045.296)"/><path class="b" d="M369.024,133.337H66.419A66.919,66.919,0,1,1,66.419-.5H369.024a66.919,66.919,0,1,1,0,133.837Z" transform="translate(260.005 1385.653)"/></g><text class="c" transform="translate(519 299)"><tspan x="0" y="0">P</tspan><tspan class="d" y="0">O</tspan><tspan y="0">W</tspan><tspan class="d" y="0">E</tspan><tspan class="e" y="0">R</tspan><tspan class="f" y="0">E</tspan><tspan class="d" y="0">D </tspan><tspan class="d" y="0">B</tspan><tspan class="d" y="0">Y</tspan></text><text class="g" transform="translate(899 1678)"><tspan x="0" y="0">T</tspan><tspan class="h" y="0">E</tspan><tspan class="d" y="0">CH</tspan></text></g></svg>