<svg width="501" height="474" viewBox="0 0 501 474" fill="none" xmlns="http://www.w3.org/2000/svg">
<path d="M399.85 42.4755H305.641C300.116 42.4755 294.817 40.2806 290.91 36.3736C287.003 32.4666 284.808 27.1675 284.808 21.6422C284.808 16.1168 287.003 10.8178 290.91 6.91078C294.817 3.00377 300.116 0.808838 305.641 0.808838H399.85C405.375 0.808838 410.674 3.00377 414.581 6.91078C418.488 10.8178 420.683 16.1168 420.683 21.6422C420.683 27.1675 418.488 32.4666 414.581 36.3736C410.674 40.2806 405.375 42.4755 399.85 42.4755V42.4755Z" fill="#03FF89"/>
<path d="M379.018 148.596H122.475C111.425 148.596 100.826 144.206 93.0125 136.392C85.1985 128.578 80.8086 117.98 80.8086 106.93C80.8086 95.8789 85.1985 85.2808 93.0125 77.4668C100.826 69.6528 111.425 65.2629 122.475 65.2629H379.018C390.068 65.2629 400.666 69.6528 408.48 77.4668C416.294 85.2808 420.684 95.8789 420.684 106.93C420.684 117.98 416.294 128.578 408.48 136.392C400.666 144.206 390.068 148.596 379.018 148.596Z" fill="#03FF89"/>
<path d="M437.518 299.757H62.5155C45.9398 299.757 30.0429 293.172 18.3221 281.451C6.60129 269.73 0.0166016 253.834 0.0166016 237.258C0.0166016 220.682 6.60129 204.785 18.3221 193.065C30.0429 181.344 45.9398 174.759 62.5155 174.759H437.518C454.093 174.759 469.99 181.344 481.711 193.065C493.432 204.785 500.017 220.682 500.017 237.258C500.017 253.834 493.432 269.73 481.711 281.451C469.99 293.172 454.093 299.757 437.518 299.757Z" fill="#03FF89"/>
<path d="M379.018 409.257H122.475C111.425 409.257 100.826 404.868 93.0125 397.054C85.1985 389.24 80.8086 378.641 80.8086 367.591C80.8086 356.54 85.1985 345.942 93.0125 338.128C100.826 330.314 111.425 325.924 122.475 325.924H379.018C390.068 325.924 400.666 330.314 408.48 338.128C416.294 345.942 420.684 356.54 420.684 367.591C420.684 378.641 416.294 389.24 408.48 397.054C400.666 404.868 390.068 409.257 379.018 409.257Z" fill="#03FF89"/>
<path d="M195.849 473.708H101.64C96.1146 473.708 90.8156 471.513 86.9086 467.606C83.0016 463.699 80.8066 458.4 80.8066 452.875C80.8066 447.349 83.0016 442.05 86.9086 438.143C90.8156 434.236 96.1146 432.041 101.64 432.041H195.849C201.374 432.041 206.673 434.236 210.58 438.143C214.487 442.05 216.682 447.349 216.682 452.875C216.682 458.4 214.487 463.699 210.58 467.606C206.673 471.513 201.374 473.708 195.849 473.708V473.708Z" fill="#03FF89"/>
</svg>
