<svg width="40" height="40" viewBox="0 0 40 40" fill="none" xmlns="http://www.w3.org/2000/svg">
<path fill-rule="evenodd" clip-rule="evenodd" d="M10.4 4H29.6C33.1346 4 36 6.86538 36 10.4V29.6C36 33.1346 33.1346 36 29.6 36H10.4C6.86538 36 4 33.1346 4 29.6V10.4C4 6.86538 6.86538 4 10.4 4ZM27.9855 17.3511C27.9855 18.867 27.0887 19.6209 26.0807 19.8829C27.2871 20.24 28.1602 21.2162 28.1602 22.7638V25.6051H23.557V22.9067C23.557 22.0813 23.0649 21.748 22.2236 21.748H16.7633V25.6051H12.1602V14.24H23.0966C25.8426 14.24 27.9855 14.8273 27.9855 17.3511ZM16.7633 18.6845H22.303C22.9062 18.6845 23.2712 18.6051 23.2712 18.129C23.2712 17.6527 22.9062 17.5733 22.303 17.5733H16.7633V18.6845Z" fill="white"/>
</svg>
