<svg width="30" height="30" viewBox="0 0 30 30" fill="none" xmlns="http://www.w3.org/2000/svg">
<path d="M23.7533 21.2471C21.6907 21.2471 20.0127 22.9251 20.0127 24.9877C20.0127 27.0503 21.6908 28.7284 23.7533 28.7284C25.8159 28.7284 27.494 27.0503 27.494 24.9877C27.494 22.9251 25.8159 21.2471 23.7533 21.2471ZM23.7533 26.484C22.9282 26.484 22.2571 25.8129 22.2571 24.9877C22.2571 24.1625 22.9282 23.4915 23.7533 23.4915C24.5785 23.4915 25.2496 24.1625 25.2496 24.9877C25.2496 25.8129 24.5785 26.484 23.7533 26.484Z" fill="white"/>
<path d="M29.7615 6.78978C29.5491 6.51784 29.2232 6.35923 28.878 6.35923H6.92699L5.91701 2.13342C5.79619 1.62846 5.34466 1.27197 4.82546 1.27197H1.12219C0.502386 1.27191 0 1.7743 0 2.39411C0 3.01392 0.502386 3.5163 1.12219 3.5163H3.93969L7.58682 18.7767C7.70764 19.2821 8.15917 19.6382 8.67837 19.6382H26.1473C26.6632 19.6382 27.1128 19.2866 27.2366 18.786L29.9673 7.75107C30.0499 7.41597 29.974 7.06171 29.7615 6.78978ZM25.2693 17.3938H9.56414L7.46336 8.60362H27.4441L25.2693 17.3938Z" fill="white"/>
<path d="M10.1745 21.2471C8.11185 21.2471 6.43384 22.9251 6.43384 24.9877C6.43384 27.0503 8.11191 28.7284 10.1745 28.7284C12.2371 28.7284 13.9151 27.0503 13.9151 24.9877C13.9151 22.9251 12.2371 21.2471 10.1745 21.2471ZM10.1745 26.484C9.3493 26.484 8.67823 25.8129 8.67823 24.9877C8.67823 24.1625 9.3493 23.4915 10.1745 23.4915C10.9997 23.4915 11.6707 24.1625 11.6707 24.9877C11.6707 25.8129 10.9997 26.484 10.1745 26.484Z" fill="white"/>
</svg>
