<svg width="31" height="26" viewBox="0 0 31 26" fill="none" xmlns="http://www.w3.org/2000/svg">
<path d="M8.28162 0.00378572C8.46121 0.0232414 8.62724 0.1085 8.74771 0.243101C8.86818 0.377701 8.93456 0.55212 8.93406 0.732759V4.92149H18.4213C18.5179 4.92177 18.6135 4.94118 18.7025 4.97859C18.7915 5.016 18.8723 5.07069 18.94 5.13947C19.0078 5.20826 19.0613 5.28979 19.0974 5.37936C19.1335 5.46893 19.1515 5.56476 19.1504 5.66133V10.9163C19.1498 11.1095 19.0728 11.2946 18.9362 11.4311C18.7996 11.5677 18.6145 11.6447 18.4213 11.6453H8.93406V15.834C8.93352 15.9774 8.89081 16.1175 8.81126 16.2369C8.73171 16.3562 8.61882 16.4495 8.48665 16.5051C8.35448 16.5608 8.20885 16.5764 8.06791 16.5499C7.92696 16.5234 7.7969 16.4561 7.69393 16.3563L0.208572 8.79473C0.0748884 8.65809 2.95063e-05 8.47454 2.95063e-05 8.28338C2.95063e-05 8.09222 0.0748884 7.90866 0.208572 7.77202L7.69393 0.210525C7.77062 0.134913 7.86306 0.0771783 7.96466 0.0414403C8.06625 0.00570236 8.17448 -0.00716027 8.28162 0.00378572V0.00378572ZM7.48713 2.50616L1.75369 8.2834L7.48713 14.0606V10.9163C7.48599 10.8198 7.50399 10.7239 7.54009 10.6344C7.57619 10.5448 7.62967 10.4633 7.69745 10.3945C7.76524 10.3257 7.84597 10.271 7.935 10.2336C8.02403 10.1962 8.11959 10.1768 8.21617 10.1765H17.6818V6.3903H8.21617C8.023 6.38973 7.83791 6.31275 7.70131 6.17616C7.56472 6.03958 7.48772 5.85449 7.48713 5.66133V2.50616ZM21.8486 8.53361C22.0334 8.54161 22.2083 8.61937 22.3381 8.75121L29.8234 16.3128C29.9571 16.4494 30.032 16.6329 30.032 16.8241C30.032 17.0153 29.9571 17.1988 29.8234 17.3355L22.3381 24.897C22.2351 24.9968 22.1051 25.0641 21.9641 25.0906C21.8232 25.1171 21.6775 25.1015 21.5454 25.0459C21.4132 24.9902 21.3003 24.8969 21.2208 24.7776C21.1412 24.6582 21.0985 24.5182 21.0979 24.3747V20.186H11.6215C11.5249 20.1857 11.4294 20.1662 11.3404 20.1288C11.2514 20.0914 11.1707 20.0367 11.103 19.9679C11.0352 19.8991 10.9818 19.8176 10.9457 19.7281C10.9096 19.6385 10.8917 19.5427 10.8928 19.4462V14.1912C10.8934 13.9981 10.9703 13.813 11.1069 13.6765C11.2434 13.5399 11.4284 13.4629 11.6215 13.4622H21.0979V9.27345C21.0968 9.17504 21.1154 9.07742 21.1529 8.9864C21.1903 8.89539 21.2457 8.81288 21.3158 8.7438C21.3859 8.67472 21.4692 8.62049 21.5608 8.58438C21.6523 8.54827 21.7502 8.53099 21.8486 8.53361V8.53361ZM22.556 11.0469V14.1912C22.5572 14.2887 22.5388 14.3854 22.502 14.4757C22.4652 14.566 22.4108 14.6481 22.3418 14.717C22.2728 14.7859 22.1908 14.8404 22.1004 14.8771C22.0101 14.9139 21.9134 14.9322 21.8158 14.931H12.3397V18.7172H21.8158C21.9124 18.716 22.0083 18.734 22.0979 18.7701C22.1875 18.8061 22.2691 18.8596 22.3379 18.9274C22.4067 18.9951 22.4614 19.0759 22.4989 19.1649C22.5363 19.254 22.5557 19.3496 22.556 19.4462V22.6013L28.2679 16.8241L22.556 11.0469V11.0469Z" fill="white"/>
</svg>
